<?xml version="1.0" encoding="utf-8"?>
<!-- Generator: Adobe Illustrator 18.1.1, SVG Export Plug-In . SVG Version: 6.00 Build 0)  -->
<svg version="1.1" id="Layer_1" xmlns="http://www.w3.org/2000/svg" xmlns:xlink="http://www.w3.org/1999/xlink" x="0px" y="0px"
	 viewBox="0 0 342.5 285.6" enable-background="new 0 0 342.5 285.6" xml:space="preserve">
<g>
	<path fill="#8F8F8F" d="M0,140.4c0.1,0,0.2,0,0.3,0c0.3,0.4,0.3,0.8,0,1.1c-0.1,0-0.2,0-0.3,0C0,141.2,0,140.8,0,140.4z"/>
	<path fill="#747474" d="M172.8,0.3c0-0.1,0-0.2,0-0.3c0.4,0,0.8,0,1.2,0c0,0.1,0,0.2,0,0.3C173.6,0.6,173.2,0.6,172.8,0.3z"/>
	<path fill="#010101" d="M172.8,0.3c0.4,0,0.8,0,1.1,0c1.6,4.2,3.6,8.1,6.6,11.4c4.3,4.8,9.7,7.5,15.9,9c5.5,1.3,11.1,1.6,16.8,1.7
		c4.4,0,8.8-0.1,13.2-0.1c5.8,0,11.5,0,17.2,0.8c8.4,1.2,16,4.1,21.8,10.5c4.6,5,7.3,11.1,9.1,17.5c0.4,1.3,0.7,2.7,0.9,4.1
		c0.2,0.9,0.6,1.2,1.5,1.3c6.7,0.8,13.2,2.1,19.4,4.8c5.9,2.6,10.8,6.2,14.1,11.9c2.2,3.8,3.4,8,3.9,12.3c0.8,6.2,0.6,12.4,0.6,18.7
		c0,6,0.1,12,1.7,17.8c2.3,8.6,7.7,14.6,15.6,18.5c3,1.5,6.1,2.6,9.2,3.6c0.4,0.1,1,0,1,0.8c0,0.7-0.5,0.7-1,0.8
		c-5.5,1.6-10.9,3.5-15.5,7.1c-5.4,4.2-8.3,9.8-9.4,16.4c-1.1,6.3-0.7,12.7-0.6,19c0.1,5.8,0,11.5-1.4,17.1c-2.1,8.2-7.1,14-14.5,18
		c-6,3.3-12.6,5.1-19.3,6.3c-1.6,0.3-3.3,0.6-5,0.8c-1,0.1-1.4,0.5-1.5,1.5c-0.7,4.1-1.9,8.1-3.7,11.9c-4.3,9.2-11.7,14.6-21.4,17
		c-5.5,1.4-11,1.9-16.6,1.9c-6.6,0.1-13.3,0-19.9,0.1c-7.1,0.1-14.2,0.5-21.1,2.5c-10.3,2.9-17.5,9.2-21.7,19
		c-0.1,0.2-0.2,0.4-0.3,0.7c-0.2,0.4-0.2,0.8-0.8,0.8c-0.6,0-0.7-0.4-0.8-0.8c-1.2-3.2-2.7-6.2-4.8-8.9c-4.5-6-10.6-9.3-17.8-10.9
		c-5.1-1.2-10.3-1.5-15.6-1.5c-6.5,0-12.9,0.2-19.4,0.1c-6.5-0.1-12.9-0.6-19.1-2.5c-10.4-3.2-17.3-10.1-21.4-20
		c-1.4-3.4-2.4-6.8-3.1-10.4c-0.2-1-0.5-1.3-1.5-1.4c-6.6-0.8-13-2.2-19.1-4.8c-10.3-4.4-16.3-12.1-17.9-23.3
		c-0.7-5-0.7-9.9-0.7-14.9c0-5.4,0.1-10.7-0.5-16c-1.3-12.6-7.8-21.3-19.5-26.1c-2.4-1-4.8-1.9-7.3-2.5c0-0.4,0-0.8,0-1.1
		c3.5-1,7-2.1,10.3-3.7c9.1-4.4,14.4-11.5,15.6-21.6c0.8-6.1,0.4-12.1,0.4-18.2c0-5.7,0-11.4,1.6-17c2.2-8,7.3-13.7,14.6-17.6
		c5.7-3,11.8-4.8,18.1-6c2-0.4,4.1-0.7,6.1-1c0.9-0.1,0.8-0.8,0.8-1.3c0.6-3.3,1.5-6.6,2.7-9.7C74.8,33.9,82.4,27.6,93.2,25
		c6.7-1.6,13.5-2,20.3-2c5.6,0,11.3,0.1,16.9,0c7.4-0.2,14.7-0.7,21.8-3c9.8-3.2,16.4-9.7,20.3-19.1C172.6,0.7,172.7,0.5,172.8,0.3z
		"/>
	<path fill="#FEFEFE" d="M2.6,141c2.7-0.9,5.2-1.7,7.5-2.8c6.7-3.1,12.1-7.5,15-14.5c2-4.7,2.6-9.7,2.6-14.8c0-4.9-0.1-9.8-0.1-14.6
		c0-5.8,0.4-11.5,2.6-16.9c2.6-6.6,7.5-11.1,13.7-14.3c6.1-3.1,12.7-4.8,19.4-5.9c1.7-0.3,3.4-0.5,5.1-0.7c0.4-0.1,0.7-0.1,0.7-0.6
		c-0.4-2.1,0.5-4.1,1-6.1c1.7-6.2,4.4-11.8,9.1-16.3c4.6-4.3,10.1-6.5,16.2-7.8c5-1,10.1-1.3,15.2-1.5c7.9-0.2,15.8,0.2,23.6-0.2
		c7.4-0.4,14.7-1.2,21.6-4.1c7.9-3.4,13.5-9.2,17-17c0.1-0.2,0.2-0.4,0.4-0.8c1,2.2,1.9,4.2,3.1,6.1c4.7,7.5,11.5,11.8,20,13.7
		c4.8,1.1,9.6,1.4,14.5,1.6c6.8,0.2,13.5-0.2,20.3-0.1c6.6,0.1,13.1,0.5,19.4,2.5c11,3.3,17.7,11,21.5,21.6c1,2.9,1.8,5.9,2.4,9
		c0.1,0.5,0.1,1,1,1.1c8.7,1,17.2,2.6,24.8,7.2c7.2,4.3,11.1,10.8,12.5,18.9c1.1,6.7,0.9,13.4,0.9,20.1c0,6.4,0.1,12.8,1.8,19
		c2.6,9.1,8.5,15.1,16.9,19.1c2.3,1.1,4.7,2,7.4,2.9c-1.2,0.4-2.1,0.7-3,1c-4.7,1.6-9.1,3.7-12.8,7c-5.5,4.8-8.1,11.1-8.9,18.2
		c-0.7,5.7-0.4,11.4-0.3,17.1c0.1,5.7,0,11.4-1.4,17c-2.1,8.1-7.3,13.7-14.7,17.5c-6.5,3.3-13.5,5-20.6,6.2
		c-1.1,0.2-2.3,0.4-3.4,0.5c-0.9,0-1.1,0.4-1.2,1.2c-0.6,3.9-1.7,7.7-3.2,11.4c-4.1,9.8-11.6,15.5-21.9,17.9
		c-5.3,1.2-10.7,1.7-16.2,1.8c-7.8,0.1-15.7,0-23.5,0.2c-7.5,0.2-14.9,1.1-21.9,4c-8,3.3-13.7,9.1-17.3,16.9
		c-0.2,0.3-0.3,0.6-0.5,1.1c-0.8-1.8-1.6-3.4-2.5-5c-4.7-8.2-11.9-12.9-21-14.8c-4.9-1.1-9.9-1.5-14.9-1.5c-7.4,0-14.8,0.1-22.2,0
		c-6.5-0.1-12.9-0.8-19-3.2c-9.1-3.4-14.9-10-18.4-18.9c-1.2-3.1-2.2-6.3-2.9-9.5c-0.1-0.3-0.2-0.7-0.1-0.9c0.8-1.6-0.3-1.5-1.3-1.6
		c-7.8-0.9-15.4-2.5-22.4-6.1c-8.4-4.3-13.1-11.2-14.6-20.4c-0.9-5.3-0.9-10.6-0.8-15.9c0.1-6.9,0.1-13.7-1.3-20.5
		c-2.2-10.2-8.3-17.2-17.6-21.6C7.5,142.7,5.2,141.8,2.6,141z"/>
	<path d="M216.3,257c-5.6,0-11.3-0.1-16.9,0.5c-5.3,0.6-10.5,1.7-15.3,4.1c-6.4,3.3-10.6,8.6-13.3,15.2c-0.4,0.9-0.8,1-1.7,1
		c-0.9,0-1.2-0.3-1.4-1.1c-3.9-10.7-11.7-16.6-22.8-18.3c-6.6-1-13.3-0.8-20-0.8c-7.9,0.1-15.8,0.2-23.6-1.6
		c-10.8-2.5-18.2-9-22.4-19.2c-1.7-4.1-2.9-8.4-3.5-12.8c-0.2-1-0.5-1.4-1.6-1.5c-8.2-0.7-16.3-2.1-23.8-5.8
		c-8.5-4.2-13.3-11.1-14.7-20.4c-0.8-5.3-0.7-10.6-0.7-15.9c0-5.5,0-11-1.1-16.5c-1.7-8.2-6.5-14-13.8-17.8c-2.9-1.5-5.9-2.7-9-3.5
		c-1.2-0.3-1-0.9-1.1-1.7c-0.1-0.9,0.3-1,1-1.2c4.2-1.1,8.2-2.6,11.9-4.8c6.1-3.7,9.5-9.2,10.6-16.2c0.8-4.9,0.7-9.9,0.6-14.8
		c-0.1-5.6-0.2-11.3,1.1-16.8C36.6,79,41.6,73.2,49,69.3c6.6-3.4,13.7-5.1,21-6.2c1.5-0.2,2.9-0.5,4.4-0.6c1-0.1,1.3-0.5,1.4-1.4
		c0.6-4.6,1.7-9.1,3.5-13.4C83.5,38,91,32.4,101.2,30.2c4.9-1.1,9.9-1.4,14.9-1.5c7.2-0.2,14.4,0.2,21.6-0.2
		c5.3-0.3,10.6-0.9,15.7-2.5c8.7-2.8,14.6-8.7,18-17c0.4-0.9,0.8-1.1,1.7-1.2c1,0,1.2,0.5,1.4,1.2c4.1,11.1,12.3,16.8,23.8,18.3
		c6.9,0.9,13.9,0.7,20.8,0.6c7.4-0.1,14.8-0.1,22.1,1.6c11.2,2.6,18.5,9.6,22.6,20.1c1.5,3.8,2.5,7.7,3.1,11.8
		c0.2,1,0.4,1.3,1.5,1.4c8.5,0.8,16.8,2.1,24.5,6c8.7,4.4,13.3,11.6,14.6,21.1c0.9,6.9,0.5,13.8,0.6,20.7c0.1,3.8,0.3,7.6,1.2,11.3
		c2,8.7,7.4,14.5,15.4,18.1c2.4,1.1,4.9,2.1,7.5,2.7c1.2,0.3,0.8,1.1,0.9,1.7c0.1,0.7-0.2,0.9-0.9,1.1c-4.5,1.2-8.8,2.7-12.7,5.3
		c-5.8,3.8-9,9.3-10,16.2c-0.8,5.6-0.5,11.3-0.4,16.9c0,4.8,0,9.7-1.1,14.4c-2,8.5-7.2,14.3-14.9,18.1c-6.3,3.2-13.1,4.7-20,5.8
		c-1.9,0.3-3.7,0.6-5.6,0.7c-1,0.1-0.8,0.7-0.9,1.3c-0.5,3.8-1.3,7.4-2.6,11c-3.9,11.3-11.9,17.8-23.5,20.1
		c-5.1,1-10.3,1.3-15.5,1.4C222,257.1,219.1,257,216.3,257z"/>
	<path fill="#FEFEFE" d="M169.3,274.1c-0.9-2-1.9-3.9-3.1-5.7c-4.5-6.6-10.9-10.2-18.6-11.9c-7.5-1.6-15-1.3-22.6-1.3
		c-7.5,0.1-14.9,0.2-22.3-1.3c-11-2.3-18.2-8.8-22.1-19.2c-1.5-4-2.5-8.2-3.2-12.5c-0.2-1.4-0.4-1.7-2.4-1.9
		c-3.4-0.3-6.8-0.7-10.1-1.3c-5.2-1-10.2-2.4-14.9-4.9c-7.1-3.8-11.1-9.8-12.4-17.8c-0.9-5.3-0.8-10.6-0.7-15.9c0-6,0-12.1-1.4-18
		c-2-8.4-7.1-14.3-14.6-18.3c-2.1-1.1-4.2-2-6.4-2.8c0.2-0.5,0.7-0.4,1.1-0.6c4.7-1.7,9.2-3.9,12.8-7.4c4.1-3.9,6.2-8.8,7.1-14.3
		c1-6.3,0.5-12.6,0.5-18.9c0-4.5,0.1-9,1.3-13.4c1.9-7.1,6.4-12,12.8-15.3c6.3-3.3,13.1-4.9,20.1-6c1.9-0.3,3.9-0.5,5.8-0.7
		c1.3-0.1,1.8-0.6,2-2c0.7-5.2,1.7-10.2,3.9-15c3.9-8.4,10.6-13.2,19.6-15.2c4.8-1.1,9.6-1.4,14.5-1.5c7.2-0.2,14.5,0.2,21.7-0.2
		c6-0.3,12-1,17.7-3.1c7.6-2.8,13.2-7.9,16.9-15.2c0.2-0.3,0.3-0.6,0.6-1c0.9,1.6,1.6,3.2,2.5,4.7c4.4,7,10.8,11,18.8,12.7
		c6.7,1.5,13.5,1.5,20.3,1.4c6.9-0.1,13.8-0.3,20.6,0.5c7.1,0.9,13.7,2.9,18.9,8c4,3.9,6.5,8.6,8.3,13.8c1.2,3.6,2,7.4,2.6,11.2
		c0.1,0.5,0.2,0.7,0.8,0.8c8.6,1.4,17.4,2,25.5,6c8.2,4,12.7,10.5,13.9,19.5c0.6,4.7,0.6,9.5,0.6,14.2c0,4.8,0,9.5,0.5,14.2
		c1.4,11.4,7.4,19.3,17.9,23.8c1.3,0.6,2.6,1.1,4.1,1.7c-3.2,1.1-6.2,2.3-8.9,3.9c-7.2,4.3-11.2,10.6-12.3,18.8
		c-0.8,5.7-0.5,11.4-0.4,17.1c0,5,0,9.9-1.3,14.8c-2,7.6-7.1,12.5-13.9,15.8c-5.9,2.8-12.2,4.3-18.6,5.3c-2.2,0.3-4.5,0.6-6.8,0.9
		c-0.3,0-0.5,0.2-0.8,0.5c-1.6,1.5-1,3.6-1.4,5.3c-0.5,1.9-0.8,3.8-1.4,5.7c-1.9,6.3-5,11.9-10.4,15.8c-4.4,3.1-9.3,4.6-14.6,5.4
		c-4.8,0.7-9.7,0.9-14.6,0.9c-6.9,0.1-13.8-0.2-20.7,0.3c-5.4,0.4-10.8,1.2-15.9,3.2c-7.5,3-12.9,8.2-16.4,15.4
		C169.6,273.7,169.5,273.8,169.3,274.1z"/>
	<path fill="#010101" d="M173.4,15.1c2.4,4.1,5.3,7.7,9,10.5c5,3.9,10.8,5.9,17,6.8c5.7,0.8,11.5,0.8,17.2,0.7
		c6.8,0,13.6-0.2,20.3,1.1c10.2,2,17.2,7.9,21.3,17.4c2,4.8,3.3,9.7,4,14.8c0.1,0.9,0.5,1.2,1.3,1.2c7.7,0.7,15.4,1.9,22.6,4.9
		c9.5,4,14.8,11.2,16,21.5c0.4,3.3,0.5,6.6,0.5,9.9c0.1,5.9,0,11.8,1.2,17.7c1.9,9.7,7.7,16.3,16.3,20.7c1.5,0.8,3,1.5,4.6,2.2
		c-1.7,0.8-3.3,1.5-4.9,2.3c-5.7,2.9-10.6,6.7-13.6,12.5c-2.4,4.5-3.2,9.3-3.3,14.3c-0.1,5,0,10-0.1,15c-0.1,5.8-1.1,11.4-4.7,16.2
		c-3.2,4.4-7.7,7.1-12.7,9.1c-6.6,2.7-13.5,3.9-20.6,4.8c-0.4,0.1-0.9,0.1-1.3,0.2c-2.6,0.4-2.6,0.4-3,3c-0.8,5.2-2.2,10.2-4.6,14.9
		c-4.3,8-11.1,12.3-19.8,14.1c-6,1.2-12.1,1.4-18.1,1.4c-6.6,0-13.2,0-19.8,0.7c-7.6,0.9-14.8,2.9-20.9,7.7c-3.2,2.5-5.7,5.6-7.9,9
		c-0.1,0.2-0.3,0.5-0.5,0.8c-0.7-1-1.3-1.9-1.9-2.9c-5.5-8.3-13.4-12.8-23.1-14.4c-7.5-1.2-15-0.9-22.5-0.9c-6.2,0-12.4,0-18.5-1.6
		c-9.7-2.5-15.9-8.9-19.5-18c-1.8-4.4-2.9-9-3.6-13.6c-0.2-1.2-0.6-1.4-1.7-1.5c-7.9-0.7-15.6-2-22.9-5.3
		c-8.6-3.9-13.6-10.5-14.9-19.8c-0.6-4.1-0.7-8.2-0.7-12.3c0-5-0.1-10-0.9-14.9c-1.6-10.3-7.3-17.6-16.4-22.3
		c-1.5-0.8-3.1-1.5-4.7-2.3c3.5-1.5,6.7-3.1,9.8-5.1c7.1-4.9,11-11.6,11.9-20.1c0.5-4.5,0.4-8.9,0.3-13.4c-0.1-4.1,0-8.2,0.8-12.2
		c1.5-7.9,6.1-13.3,13.2-16.9c5.7-2.9,11.8-4.4,18-5.5c3-0.5,5.9-1,8.9-1.2c0.8-0.1,0.8-0.6,0.9-1.1c0.7-5.4,2-10.7,4.4-15.7
		c4.1-8.2,10.8-12.9,19.6-14.9c5.6-1.2,11.3-1.4,17-1.6c6.7-0.1,13.4,0.1,20.1-0.6c7.8-0.8,15.2-2.6,21.6-7.3c3.3-2.5,6.1-5.5,8.3-9
		c0.2-0.4,0.5-0.7,0.7-1.1C173.2,15.2,173.2,15.2,173.4,15.1z"/>
	<path fill="#FDFDFD" d="M321.8,144.6c-4,1.9-7.7,4-10.9,6.9c-5,4.5-7.8,10.2-8.8,16.9c-0.7,4.5-0.5,9.1-0.5,13.6
		c0,4.6,0.1,9.2-0.8,13.7c-1.5,7.4-6,12.4-12.6,15.8c-5.8,2.9-12,4.4-18.4,5.5c-3.1,0.5-6.2,1-9.4,1.1c-0.7,0-0.5,0.5-0.6,0.8
		c-0.5,3.8-1.2,7.5-2.3,11.1c-1.8,5.7-4.6,10.9-9.5,14.6c-4.3,3.3-9.4,4.9-14.7,5.7c-5.1,0.8-10.2,0.9-15.3,1
		c-5.9,0-11.8,0-17.6,0.5c-8.3,0.7-16.3,2.6-23.2,7.7c-3.3,2.4-5.9,5.4-8.2,8.9c-1.1-1.5-2.1-2.9-3.2-4.2
		c-5.3-6.4-12.3-10-20.4-11.6c-5.4-1-11-1.2-16.5-1.2c-6.6,0-13.2,0.2-19.8-0.4c-13.1-1.3-21.3-8.4-25.4-20.7
		c-1.3-4-2.2-8.1-2.8-12.3c-0.1-0.7-0.3-0.9-1-0.9c-6.3-0.6-12.5-1.4-18.6-3.3c-3.5-1.1-6.9-2.5-9.9-4.6c-6.2-4.3-9-10.4-9.9-17.7
		c-0.5-4.5-0.5-9.1-0.5-13.7c-0.1-4.8-0.3-9.6-1.2-14.3c-2.1-9.9-8.1-16.7-16.9-21.2c-0.6-0.3-1.2-0.6-1.8-0.9c0,0,0-0.1-0.1-0.2
		c3.2-1.4,6.2-3.1,8.9-5.2c6.4-4.9,9.8-11.5,10.7-19.5c0.5-4.7,0.4-9.3,0.3-14c-0.1-4.6,0-9.2,1.2-13.7c1.9-7.1,6.7-11.7,13.1-14.8
		c6.2-2.9,12.8-4.4,19.5-5.4c2.3-0.4,4.7-0.7,7-0.8c0.7,0,0.6-0.4,0.6-0.7c0.5-4,1.3-7.9,2.5-11.8c3.6-11.4,11.5-17.7,23.1-19.6
		c5.3-0.9,10.7-1,16.1-1.1c6.2-0.1,12.4,0,18.6-0.6c7.5-0.8,14.7-2.4,21.1-6.7c3.5-2.4,6.4-5.4,8.8-8.9c0.5-0.7,0.7-1,1.3-0.1
		c6,9.1,14.7,13.9,25.3,15.4c5.8,0.8,11.6,0.8,17.4,0.7c6.6,0,13.3-0.2,19.8,1c10.6,2,17.5,8.3,21.3,18.2c1.6,4.3,2.7,8.7,3.4,13.3
		c0.3,1.9,0.3,1.9,2.1,2c3.7,0.3,7.3,0.8,10.9,1.5c5.6,1.1,11,2.7,15.9,5.7c6.1,3.8,9.4,9.4,10.6,16.3c0.8,4.8,0.8,9.6,0.8,14.5
		c0.1,4.8,0.2,9.5,1,14.2c1.8,10.5,7.8,17.8,17.1,22.5C320.3,143.9,321,144.2,321.8,144.6z"/>
	<path fill="#B7DAEB" d="M139.2,167.3c-0.2-2.6,0.7-5.2,1.4-7.9c1.9-6.5,4.6-12.6,8.4-18.3c2.6-4,5.7-7.7,9-11.1
		c2.8-2.9,5.5-5.9,8.2-8.9c0.9-0.9,0.8-2.1,1.1-3.2c1.4-5.6,2.7-11.2,4-16.8c1.4-5.8,3-11.5,4.9-17.1c0.9-2.6,2.3-4.9,5-6.2
		c0.8-0.4,1.7-0.5,2.5-0.2c3.5,1.2,6.2,3.6,8.3,6.6c1.3,1.9,1.2,3.9,0.5,6c-1.2,3.1-2.3,6.3-3.1,9.5c-0.2,1-1,1.6-1.5,2.4
		c-3,4.1-5.7,8.4-9,12.3c-1.4,1.7-2.8,3.2-4.5,4.6c-1.4,1-2.5,2.3-3.7,3.6c-1.3,1.4-1.3,3.3-1.6,5c-0.6,3.8-0.8,7.7-1,11.5
		c-0.4,6.2-0.3,12.3-0.1,18.5c0.2,6.4,0.6,12.7,2.1,18.9c0.5,1.9,0.9,3.8,2.2,5.4c0.6,0.7,1,0.7,1.7,0c5-5.9,8.5-12.6,11.1-19.7
		c1.1-2.8,2-5.7,2.7-8.7c0.3-1.1-0.1-1.6-1.2-1.9c-1.4-0.4-2-1.5-1.5-2.8c0.2-0.5,0.6-0.8,1.2-0.6c3.5,0.8,7,1.6,10.5,2.1
		c1.9,0.3,3.8,0.7,5.7,0.7c1.3,0,2.4,1.1,2.5,2.3c0,1.2-0.4,1.7-1.7,1.8c-3.2,0.2-6.3-0.4-9.4-1.5c-2.1-0.8-2-0.7-2.6,1.4
		c-1.8,6.2-3.9,12.3-6.8,18.1c-2.3,4.6-5.2,8.7-8.7,12.4c-0.4,0.4-0.7,0.8-0.4,1.4c2.2,4.2,5.1,7.6,9.9,8.9c1.5,0.4,2.9,0.7,4.4,0.9
		c1.3,0.1,1.9,1,2.5,1.9c0.4,0.6-0.1,0.9-0.6,1.2c-1,0.7-2.1,0.6-3.1,0.4c-4.1-0.6-7.6-2.2-10.7-5c-1.8-1.6-3.4-3.5-4.9-5.4
		c-0.4-0.5-0.8-0.6-1.4-0.4c-2.7,0.8-5.5,1.6-8.3,2c-3.3,0.5-6.4-0.1-9.6-0.8c-4.9-1.2-8.2-4.3-10.7-8.4
		C140.3,177.6,139.2,172.7,139.2,167.3z"/>
	<path fill="#989898" d="M153.2,104.8c-0.3,9.5-2.4,18.5-7.1,26.8c-1.8,3.2-4.3,5.9-7.9,7.2c-0.9,0.4-1.7,1-2.4,1.7
		c-0.3,0.3-0.6,0.7-1,0.8c-1.6,0.5-1.7,1.5-1.7,3.1c0.2,5.7,0.3,11.4,0.4,17.1c0.1,6.2,0.3,12.5,0.5,18.7c0.1,5.1,0.3,10.1,0.4,15.2
		c0,0.9-0.1,1.7-0.3,2.5c-0.3,1.1-1,1.9-2.1,2.2c-1.4,0.3-2.1-0.1-2.6-1.4c-0.3-0.9-0.5-1.9-0.5-2.9c0.1-7.7,0.2-15.4,0.5-23.1
		c0.2-7.6-0.3-15.2-0.7-22.8c-0.3-6.5-0.6-13-0.5-19.5c0.1-6.6-0.1-13.1-0.3-19.7c-0.2-6.9-0.4-13.9-0.7-20.8
		c-0.1-3.3-0.5-6.6-1.1-9.9c-0.4-2.2,0.6-3.6,2.8-3.8c3.3-0.4,6.4,0.3,9.4,1.6c5.8,2.5,9.4,7.1,11.9,12.7
		C152.2,95,153.4,99.7,153.2,104.8z"/>
	<path fill="#98988F" d="M212.9,92.4c0,4.5-0.1,9,0,13.4c0.2,6.7,0.1,13.5,0.7,20.2c0.4,5.3,0.8,10.5,0.7,15.8
		c-0.1,5.4-0.2,10.9,0,16.3c0.3,7.2,0.9,14.3,1.3,21.5c0.2,2.6,0.3,5.2,0.3,7.8c0,1.4-0.6,2.8-0.5,4.2c0.1,2.5,0.9,3.3,3.4,3.4
		c1.2,0,2.4-0.1,3.5-0.8c0.4-0.2,0.8-0.2,1.1-0.2c1.4,0,2.9,0,4.3,0c1.3,0,2.2,0.5,2.8,1.6c0.6,1.1,0.4,2.2-0.2,3.2
		c-0.5,1-1.5,1.1-2.4,0.8c-1.1-0.3-2.2-0.3-3.4-0.3c-1.9,0.1-3.9,0.1-5.9-0.1c-1.2-0.2-2.2,0.5-3.2,1.2c-1.7,1.1-2.9,1.1-4.4-0.1
		c-0.9-0.7-1.3-1.6-1.2-2.7c0.2-2,0.5-4,0.7-5.9c0.3-2.7,0-5.5-0.1-8.3c-0.1-4.4-0.3-8.9-0.5-13.3c-0.2-7.1-0.4-14.3-0.7-21.4
		c-0.2-6-0.4-12-0.5-18c-0.1-6.6-0.3-13.3-0.5-19.9c-0.2-6.4-0.3-12.9-0.5-19.3c-0.1-4.5-0.3-9-0.4-13.5c0-1,0-2,1.2-2.2
		c1.8-0.4,3.2,0.1,3.7,1.4c0.2,0.6,0.3,1.2,0.3,1.9C212.9,83.5,212.9,87.9,212.9,92.4C212.9,92.4,212.9,92.4,212.9,92.4z"/>
	<path fill="#FEFEFE" d="M165.1,128c0.2,2.3-0.2,4.5-0.6,6.6c-0.5,3.6-1,7.2-1.4,10.9c-0.2,2.6-0.3,5.1-0.2,7.7
		c0.3,7.3,0.6,14.6,2.6,21.6c0.9,3.1,2.3,5.9,3.8,8.6c1.1,2,0.8,2.7-1.4,3.8c-1.3,0.6-2.7,0.8-4.1,0.9c-3.4,0.2-6.9,0.4-10.2-0.9
		c-5.9-2.2-9.1-6.5-10.2-12.6c-1.4-8,0.4-15.5,3.4-22.7c3.2-7.6,7.7-14.4,13.6-20.2C161.9,130.3,163.3,129.1,165.1,128z"/>
	<path fill="#FEFEFE" d="M188.6,88c0.1,3.8-1.4,7.2-3.2,10.4c-2.6,4.5-5.6,8.8-8.9,12.9c-1.2,1.5-2.6,2.9-4.2,4.1
		c-0.2,0.1-0.3,0.3-0.5,0.2c-0.3-0.1-0.2-0.4-0.1-0.6c0.4-2,0.7-4.1,1.3-6.1c1.5-4.9,2.7-10,4.1-14.9c0.7-2.3,1.3-4.7,2-7
		c0.7-2.3,2.5-3.7,4.5-4.7c1.4-0.8,3.8,0.7,4.5,2.6c0.2,0.4,0.4,0.9,0.4,1.4C188.7,86.8,188.6,87.4,188.6,88z"/>
	<path fill="#FEFEFE" d="M148.5,105.6c0.2,9.3-2.3,17.7-8.4,24.8c-1.4,1.6-3,3.1-4.5,4.7c-0.2,0.2-0.4,0.4-0.7,0.5
		c-1.7,1-2.2,0.7-2.3-1.2c-0.2-7.7-0.5-15.4-0.7-23.1c-0.1-4.4-0.3-8.9-0.5-13.3c-0.2-5.2-0.4-10.4-0.6-15.6c0-0.5-0.3-1.4,0.2-1.6
		c0.9-0.3,2-0.5,2.8,0.1c4.3,3.1,8.8,5.9,11.9,10.5c1.8,2.6,2.6,5.5,2.7,8.5C148.6,101.8,148.5,103.7,148.5,105.6z"/>
</g>
</svg>
